<?xml version="1.0" standalone="no"?><!DOCTYPE svg PUBLIC "-//W3C//DTD SVG 1.1//EN" "http://www.w3.org/Graphics/SVG/1.1/DTD/svg11.dtd"><svg t="1767610352461" class="icon" viewBox="0 0 1024 1024" version="1.1" xmlns="http://www.w3.org/2000/svg" p-id="7376" xmlns:xlink="http://www.w3.org/1999/xlink" width="200" height="200"><path d="M697.29 64.67H326.71L64.67 326.71v370.58l262.04 262.04h370.58l262.04-262.04V326.71L697.29 64.67z m66.76 764.44h-49.61v-58.75l46.49-20.8 17.88-46.93h67.14v44.58l-36.47 36.47-45.43 45.43z m-49.6 49.6v-26.05h26.05l-26.05 26.05z m-154.99-70.72v-80.41h39.03v37.76l123.33-54.44 49.17-117.65H559.46v-32.78l241.99 1.33-63.3 166.24-178.69 79.95z m131.18-26.98v48.1H583.15l107.49-48.1z m-6.44-107.56l9.15-22.93H646.9v0.12h-48.42v50.5h-39.03v-84.73H736.2L704 693.43l-82.35 36.37v-56h25.25v17.23l37.3-17.58z m-37.29-300.09v0.12h46.45l-9.15-22.93-37.3-17.58v17.23h-25.25v-56l82.35 36.37 32.2 77.02H559.46v-84.73h39.03v50.5h48.42z m124.08 57.4L721.82 313.1l-123.33-54.44v37.76h-39.03v-80.41l178.69 79.95 63.3 166.24-241.99 1.33v-32.78h211.53zM583.15 194.89h107.49v48.1l-107.49-48.1z m157.34-23.56h-26.05v-26.05l26.05 26.05z m-26.04 23.56h49.61l45.43 45.43 36.47 36.47v44.58h-67.14l-17.88-46.93-46.49-20.8v-58.75z m176.09 126.49h-20.78V300.6l20.78 20.78z m-20.78 381.24h20.78l-20.78 20.78v-20.78z m-81.88-357.44h58.07v152.45l-58.07-152.45z m58.07 181.18v152.45h-58.07l58.07-152.45z m68.39 152.46h-44.58V526.54h44.7V678.7l-0.12 0.12z m-44.58-181.36V345.18h44.58l0.12 0.12v152.17h-44.7zM678.7 109.54l13.05 13.05h-1.11v48.74H527.37v-61.79H678.7z m-182.07 0v61.79H333.36v-48.74h-1.11l13.05-13.05h151.33zM339.8 350.55l-9.15 22.93h46.45v-0.12h48.42v-50.5h39.03v84.73H287.79l32.2-77.02 82.35-36.37v56h-25.25v-17.23l-37.29 17.58z m85.71-54.12v-37.76L302.18 313.1l-49.17 117.65h211.53v32.78l-241.99-1.33 63.3-166.24 178.69-79.95v80.41h-39.03z m-48.42 354.21v-0.12h-46.45l9.15 22.93 37.3 17.58V673.8h25.25v56l-82.35-36.37-32.2-77.02h176.75v84.73h-39.03v-50.5h-48.42z m-124.08-57.4l49.17 117.65 123.33 54.44v-37.76h39.03v80.41l-178.69-79.95-63.3-166.24 241.99-1.33v32.78H253.01z m187.84 235.87H333.36v-48.1l107.49 48.1z m-157.34 23.56h26.05v26.05l-26.05-26.05z m26.04-23.56h-49.61l-45.43-45.43-36.47-36.47v-44.58h67.14l17.88 46.93 46.49 20.8v58.75z m-49.6-634.22h49.61v58.75l-46.49 20.8-17.88 46.93h-67.14v-44.58l36.47-36.47 45.43-45.43z m49.6-49.6v26.05H283.5l26.05-26.05zM154.24 300.6v20.78h-20.78l20.78-20.78z m-44.58 44.58h44.58v152.28h-44.7V345.3l0.12-0.12z m44.58 181.36v152.28h-44.58l-0.12-0.12V526.54h44.7z m0 176.08v20.78l-20.78-20.78h20.78z m81.88-23.8h-58.07V526.37l58.07 152.45z m-58.07-181.36V345.18h58.07l-58.07 152.46v-0.18z m155.31-254.47v-48.1h107.49l-107.49 48.1z m11.94 671.47l-13.05-13.05h1.11v-48.74h163.28v61.79H345.3z m161.51-85.35h-13.32V531.33l-281.95 1.56-7.96-20.9 7.96-20.9 281.95 1.56V194.89h37v297.77l281.95-1.56 7.96 20.9-7.96 20.9-281.95-1.56v297.77h-23.68z m20.56 85.35v-61.79h163.28v48.74h1.11l-13.05 13.05H527.37z" p-id="7377" fill="#1196db"></path></svg>