<?xml version="1.0" standalone="no"?><!DOCTYPE svg PUBLIC "-//W3C//DTD SVG 1.1//EN" "http://www.w3.org/Graphics/SVG/1.1/DTD/svg11.dtd"><svg t="1767520490912" class="icon" viewBox="0 0 1024 1024" version="1.1" xmlns="http://www.w3.org/2000/svg" p-id="2544" xmlns:xlink="http://www.w3.org/1999/xlink" width="200" height="200"><path d="M96 96.1v831.8h832V96.1H96z m27.14 27.13h184.43c-6.42 39.98-41.16 70.55-82.86 70.55h-31.03v30.93c0 41.79-30.57 76.52-70.55 83.04V123.23z m0 777.54V716.24c39.98 6.51 70.55 41.25 70.55 83.04v30.93h31.03c41.7 0 76.43 30.57 82.86 70.55H123.14z m375.29 0H335.07c-6.69-54.9-53.64-97.69-110.35-97.69h-3.89v-3.8c0-56.71-42.69-103.75-97.69-110.44V525.57H286.5c6.69 54.91 53.73 97.69 110.44 97.69h3.8v3.8c0 56.71 42.78 103.75 97.69 110.44v163.27z m0-190.77c-39.98-6.42-70.55-41.16-70.55-82.95v-30.94h-30.93c-41.79 0-76.52-30.57-82.95-70.55h184.43V710z m0-211.57H314c6.42-39.98 41.16-70.55 82.95-70.55h30.93v-30.93c0-41.79 30.57-76.52 70.55-82.95v184.43z m0-211.93c-54.91 6.69-97.69 53.73-97.69 110.44v3.8h-3.8c-56.71 0-103.75 42.78-110.44 97.69H123.14V335.16c55-6.69 97.69-53.73 97.69-110.44v-3.8h3.89c56.71 0 103.66-42.78 110.35-97.69h163.36V286.5z m402.43-163.27v184.52c-39.98-6.51-70.55-41.25-70.55-83.04v-30.93h-31.03c-41.7 0-76.43-30.57-82.86-70.55h184.44zM525.57 314c39.98 6.42 70.55 41.16 70.55 82.95v30.93h30.94c41.79 0 76.52 30.57 82.95 70.55H525.57V314z m0 211.57H710c-6.42 39.98-41.16 70.55-82.95 70.55h-30.94v30.94c0 41.79-30.57 76.52-70.55 82.95V525.57z m375.29 375.2H716.42c6.42-39.98 41.16-70.55 82.86-70.55h31.03v-30.93c0-41.79 30.57-76.52 70.55-83.04v184.52z m0-211.93c-55 6.69-97.69 53.73-97.69 110.44v3.8h-3.89c-56.71 0-103.66 42.78-110.35 97.69H525.57V737.5c54.91-6.69 97.69-53.73 97.69-110.44v-3.8h3.8c56.71 0 103.75-42.78 110.44-97.69h163.36v163.27zM737.5 498.43c-6.69-54.91-53.73-97.69-110.44-97.69h-3.8v-3.8c0-56.71-42.78-103.75-97.69-110.44V123.23h163.36c6.69 54.91 53.64 97.69 110.35 97.69h3.89v3.8c0 56.71 42.69 103.75 97.69 110.44v163.27H737.5z" fill="#d81e06" p-id="2545"></path></svg>